<?xml version="1.0" encoding="iso-8859-1"?>
<!-- Uploaded to: SVG Repo, www.svgrepo.com, Generator: SVG Repo Mixer Tools -->
<svg fill="#ffffff" height="800px" width="800px" version="1.1" id="Layer_1" xmlns="http://www.w3.org/2000/svg" xmlns:xlink="http://www.w3.org/1999/xlink" 
	 viewBox="0 0 496 496" xml:space="preserve">
<g>
	<g>
		<g>
			<path d="M280,272.044c17.648,0,32-14.352,32-32s-14.352-32-32-32s-32,14.352-32,32S262.352,272.044,280,272.044z M280,224.044
				c8.824,0,16,7.176,16,16c0,8.824-7.176,16-16,16c-8.824,0-16-7.176-16-16C264,231.22,271.176,224.044,280,224.044z"/>
			<path d="M374.296,202.732c-1.024-1.872-2.024-3.76-3.128-5.584c24.352-68.456,30.648-127.664,1.52-144.8
				c-18.112-10.64-44.44-1.64-76.688,25.984V16.044h16v-16H184v16h16v62.312c-32.264-27.656-58.608-36.664-76.712-26.008
				c-18.568,10.912-23.832,40.376-15.224,85.2l15.72-3.016c-6.904-35.96-4.064-61.528,7.616-68.392
				c12.784-7.528,38.328,5.112,68.6,33.784v36.32c-25.656,9.032-47.448,24.728-63.776,44.776
				c-3.496-10.648-6.584-21.024-9.016-30.896l-15.528,3.832c3.36,13.664,7.856,28.184,13.16,43.184
				c-1.104,1.824-2.104,3.712-3.128,5.584C44.336,216.892,0,242.052,0,272.044c0,33.304,52.512,56.76,121.856,69.328
				c0.96,1.736,2.056,3.368,3.08,5.056c-27.288,76.88-27.968,129.744-1.648,145.216c4.888,2.872,10.432,4.312,16.568,4.312
				c3.904,0,8.064-0.584,12.44-1.76c26.208-7.024,60.344-35.776,95.232-78.184c0.16,0.008,0.312,0.032,0.472,0.032
				c0.152,0,0.296-0.024,0.448-0.024c34.896,42.408,69.024,71.16,95.232,78.176c4.376,1.168,8.528,1.76,12.44,1.76
				c6.144,0,11.68-1.44,16.568-4.312c26.304-15.48,25.64-68.336-1.64-145.184c1.04-1.704,2.144-3.36,3.112-5.112
				c15.736-2.888,30.608-6.264,44.104-10.232l-4.512-15.344c-9.776,2.872-20.352,5.416-31.4,7.704
				c6.136-16,9.648-33.296,9.648-51.432c0-18.04-3.368-35.376-9.456-51.432C449.696,234.484,480,255.988,480,272.044
				c0,13.048-18.48,27.152-50.696,38.68l5.392,15.064C474.808,311.428,496,292.852,496,272.044
				C496,242.052,451.664,216.892,374.296,202.732z M296,99.908c30.248-28.64,55.792-41.312,68.576-33.76
				c16.608,9.76,15.472,53.624-4.728,114.968c-16.336-20.08-38.152-35.816-63.848-44.864V99.908z M210.352,149.692l5.648-1.736
				V16.044h64v131.912l5.648,1.736c13.608,4.184,26.088,10.44,37.152,18.352H173.2C184.264,160.132,196.744,153.876,210.352,149.692
				z M230.528,184.044c-3.312,9.288-12.112,16-22.528,16s-19.216-6.712-22.528-16H230.528z M154.96,184.044h13.856
				c3.72,18.232,19.872,32,39.192,32s35.472-13.768,39.192-32h93.84c4.536,4.784,8.68,9.904,12.416,15.328
				c-11.832,31.952-28.352,67.792-49.752,105.52c-5.872,10.352-11.912,20.4-18.032,30.184c-12.36,0.592-24.912,0.968-37.672,0.968
				c-12.936,0-25.504-0.304-37.656-0.88c-4.376-6.992-8.688-14.16-12.944-21.448c11.144-7.104,18.6-19.504,18.6-33.672
				c0-22.056-17.944-40-40-40c-5.424,0-10.592,1.104-15.32,3.072c-6.808-14.944-12.816-29.6-18.08-43.84
				C146.32,193.892,150.448,188.804,154.96,184.044z M167.56,257.652c2.64-0.992,5.464-1.608,8.44-1.608c13.232,0,24,10.768,24,24
				c0,8.232-4.168,15.496-10.504,19.824C181.632,285.756,174.304,271.644,167.56,257.652z M173.4,303.78
				c-12-1.32-21.4-11.392-21.4-23.736c0-4.168,1.168-8.04,3.048-11.464C160.768,280.268,166.928,292.028,173.4,303.78z M16,272.044
				c0-16.056,30.304-37.56,97.456-51.432c-6.088,16.056-9.456,33.392-9.456,51.432c0,18.184,3.528,35.528,9.704,51.56
				C52.904,311.052,16,290.884,16,272.044z M120,272.044c0-19.544,4.424-38.152,12.32-54.896
				c4.552,11.528,9.504,23.248,14.984,35.144c-6.968,7.2-11.304,16.968-11.304,27.752c0,22.056,17.944,40,40,40
				c2.128,0,4.168-0.304,6.208-0.624c2.848,4.912,5.704,9.776,8.608,14.56c-20.888-1.536-40.376-3.872-58.176-6.848
				C124.624,310.42,120,291.78,120,272.044z M148.16,478.748c-6.944,1.848-12.584,1.552-16.76-0.896
				c-14.256-8.376-17.68-47.064,4.848-115.168c22.432,27.608,54.88,46.648,91.736,51.808
				C198.072,449.388,169.544,473.02,148.16,478.748z M142.784,344.756c18.784,2.712,38.448,4.68,58.4,5.872
				c11.176,17.456,22.616,33.776,34.072,48.768C196.968,395.596,163.632,374.828,142.784,344.756z M247.984,389.7
				c-9.08-11.896-18.152-24.624-27.096-38.144c9.04,0.312,18.096,0.488,27.112,0.488c9.12,0,18.136-0.192,27.08-0.488
				C266.136,365.068,257.064,377.804,247.984,389.7z M294.744,350.684c20.328-1.192,39.88-3.224,58.456-5.912
				c-20.848,30.064-54.192,50.832-92.488,54.624C272.16,384.42,283.576,368.116,294.744,350.684z M364.576,477.852
				c-4.168,2.456-9.816,2.744-16.76,0.896c-21.384-5.728-49.912-29.36-79.824-64.256c36.856-5.16,69.304-24.184,91.736-51.784
				C382.24,430.796,378.824,469.468,364.576,477.852z M363.424,327.012c-18.288,3.064-37.824,5.36-58.208,6.872
				c4.192-6.904,8.344-13.912,12.416-21.096c17.648-31.112,33.504-64.008,46.032-95.672C371.576,233.868,376,252.492,376,272.044
				C376,291.732,371.4,310.332,363.424,327.012z"/>
		</g>
	</g>
</g>
</svg>